<?xml version="1.0" encoding="UTF-8"?>
<svg xmlns="http://www.w3.org/2000/svg" width="421" height="97">
   <defs>
      <style type="text/css">
    @namespace "http://www.w3.org/2000/svg";
    .line                 {fill: none; stroke: #332900; stroke-width: 1;}
    .bold-line            {stroke: #141000; shape-rendering: crispEdges; stroke-width: 2;}
    .thin-line            {stroke: #1F1800; shape-rendering: crispEdges}
    .filled               {fill: #332900; stroke: none;}
    text.terminal         {font-family: Verdana, Sans-serif;
                            font-size: 12px;
                            fill: #141000;
                            font-weight: bold;
                          }
    text.nonterminal      {font-family: Verdana, Sans-serif;
                            font-size: 12px;
                            fill: #1A1400;
                            font-weight: normal;
                          }
    text.regexp           {font-family: Verdana, Sans-serif;
                            font-size: 12px;
                            fill: #1F1800;
                            font-weight: normal;
                          }
    rect, circle, polygon {fill: #332900; stroke: #332900;}
    rect.terminal         {fill: #FFDB4D; stroke: #332900; stroke-width: 1;}
    rect.nonterminal      {fill: #FFEC9E; stroke: #332900; stroke-width: 1;}
    rect.text             {fill: none; stroke: none;}
    polygon.regexp        {fill: #FFF4C7; stroke: #332900; stroke-width: 1;}
  </style>
   </defs>
   <polygon points="9 61 1 57 1 65"/>
   <polygon points="17 61 9 57 9 65"/>
   <a xmlns:xlink="http://www.w3.org/1999/xlink"
      xlink:href="#WS"
      xlink:title="WS">
      <rect x="51" y="13" width="40" height="32"/>
      <rect x="49" y="11" width="40" height="32" class="nonterminal"/>
      <text class="nonterminal" x="59" y="31">WS</text>
   </a>
   <a xmlns:xlink="http://www.w3.org/1999/xlink"
      xlink:href="#Entry"
      xlink:title="Entry">
      <rect x="171" y="47" width="52" height="32"/>
      <rect x="169" y="45" width="52" height="32" class="nonterminal"/>
      <text class="nonterminal" x="179" y="65">Entry</text>
   </a>
   <a xmlns:xlink="http://www.w3.org/1999/xlink"
      xlink:href="#Separator"
      xlink:title="Separator">
      <rect x="171" y="3" width="82" height="32"/>
      <rect x="169" y="1" width="82" height="32" class="nonterminal"/>
      <text class="nonterminal" x="179" y="21">Separator</text>
   </a>
   <a xmlns:xlink="http://www.w3.org/1999/xlink"
      xlink:href="#WS"
      xlink:title="WS">
      <rect x="333" y="13" width="40" height="32"/>
      <rect x="331" y="11" width="40" height="32" class="nonterminal"/>
      <text class="nonterminal" x="341" y="31">WS</text>
   </a>
   <path class="line"
         d="m17 61 h2 m20 0 h10 m0 0 h50 m-80 0 l20 0 m-1 0 q-9 0 -9 -10 l0 -14 q0 -10 10 -10 m60 34 l20 0 m-20 0 q10 0 10 -10 l0 -14 q0 -10 -10 -10 m-60 0 h10 m40 0 h10 m60 34 h10 m52 0 h10 m0 0 h30 m-122 0 l20 0 m-1 0 q-9 0 -9 -10 l0 -24 q0 -10 10 -10 m102 44 l20 0 m-20 0 q10 0 10 -10 l0 -24 q0 -10 -10 -10 m-102 0 h10 m82 0 h10 m-142 44 h20 m142 0 h20 m-182 0 q10 0 10 10 m162 0 q0 -10 10 -10 m-172 10 v14 m162 0 v-14 m-162 14 q0 10 10 10 m142 0 q10 0 10 -10 m-152 10 h10 m0 0 h132 m40 -34 h10 m0 0 h50 m-80 0 l20 0 m-1 0 q-9 0 -9 -10 l0 -14 q0 -10 10 -10 m60 34 l20 0 m-20 0 q10 0 10 -10 l0 -14 q0 -10 -10 -10 m-60 0 h10 m40 0 h10 m23 34 h-3"/>
   <polygon points="411 61 419 57 419 65"/>
   <polygon points="411 61 403 57 403 65"/>
</svg>
