<?xml version="1.0" encoding="UTF-8" standalone="no"?><!DOCTYPE svg PUBLIC "-//W3C//DTD SVG 1.1//EN" "http://www.w3.org/Graphics/SVG/1.1/DTD/svg11.dtd"><svg width="100%" height="100%" viewBox="0 0 48 41" version="1.1" xmlns="http://www.w3.org/2000/svg" xmlns:xlink="http://www.w3.org/1999/xlink" xml:space="preserve" xmlns:serif="http://www.serif.com/" style="fill-rule:evenodd;clip-rule:evenodd;stroke-linejoin:round;stroke-miterlimit:2;"><rect id="aws-dark" x="0.061" y="0.11" width="47.871" height="40" style="fill:none;"/><g><g><path d="M16.28,18.245c-0,0.436 0.044,0.79 0.128,1.051c0.093,0.258 0.212,0.541 0.376,0.849c0.052,0.081 0.08,0.175 0.082,0.272c-0,0.117 -0.071,0.236 -0.221,0.354l-0.743,0.495c-0.09,0.064 -0.196,0.101 -0.306,0.106c-0.119,0 -0.236,-0.057 -0.353,-0.164c-0.159,-0.171 -0.301,-0.356 -0.425,-0.555c-0.131,-0.227 -0.252,-0.459 -0.363,-0.696c-0.919,1.086 -2.071,1.63 -3.46,1.63c-0.989,-0 -1.778,-0.286 -2.353,-0.852c-0.577,-0.566 -0.871,-1.322 -0.871,-2.266c-0,-1.004 0.354,-1.818 1.07,-2.433c0.719,-0.614 1.672,-0.92 2.884,-0.92c0.398,0 0.811,0.036 1.247,0.093c0.435,0.06 0.884,0.155 1.353,0.261l0,-0.862c0,-0.898 -0.188,-1.524 -0.553,-1.889c-0.376,-0.367 -1.013,-0.544 -1.919,-0.544c-0.411,0 -0.834,0.049 -1.269,0.155c-0.433,0.103 -0.858,0.237 -1.272,0.401c-0.133,0.06 -0.271,0.112 -0.411,0.154c-0.061,0.02 -0.124,0.032 -0.188,0.036c-0.166,-0 -0.248,-0.12 -0.248,-0.367l0,-0.58c0,-0.188 0.022,-0.331 0.082,-0.411c0.089,-0.109 0.203,-0.194 0.332,-0.25c0.409,-0.212 0.904,-0.389 1.481,-0.531c0.575,-0.154 1.188,-0.223 1.836,-0.223c1.399,0 2.423,0.319 3.082,0.955c0.648,0.637 0.977,1.606 0.977,2.906l0,3.825l0.025,0Zm-4.779,1.794c0.387,-0 0.787,-0.071 1.212,-0.213c0.425,-0.141 0.8,-0.402 1.117,-0.756c0.189,-0.217 0.326,-0.475 0.4,-0.754c0.071,-0.285 0.119,-0.626 0.119,-1.028l0,-0.495c-0.357,-0.087 -0.719,-0.153 -1.083,-0.199c-0.367,-0.048 -0.736,-0.072 -1.106,-0.073c-0.789,-0 -1.364,0.154 -1.753,0.473c-0.389,0.318 -0.575,0.767 -0.575,1.357c-0,0.553 0.139,0.967 0.433,1.252c0.283,0.294 0.695,0.436 1.236,0.436Zm9.449,1.276c-0.212,-0 -0.354,-0.036 -0.447,-0.12c-0.095,-0.071 -0.177,-0.234 -0.247,-0.46l-2.765,-9.126c-0.053,-0.153 -0.089,-0.311 -0.106,-0.473c0,-0.188 0.093,-0.294 0.281,-0.294l1.154,0c0.222,0 0.376,0.036 0.458,0.117c0.095,0.071 0.166,0.237 0.237,0.46l1.977,7.817l1.835,-7.817c0.057,-0.234 0.128,-0.389 0.223,-0.46c0.142,-0.086 0.306,-0.127 0.471,-0.117l0.942,0c0.221,0 0.376,0.036 0.469,0.117c0.095,0.071 0.177,0.237 0.226,0.46l1.857,7.912l2.034,-7.912c0.038,-0.171 0.12,-0.329 0.237,-0.46c0.137,-0.086 0.298,-0.127 0.46,-0.117l1.094,0c0.188,0 0.295,0.095 0.295,0.294c-0,0.06 -0.014,0.12 -0.023,0.19c-0.019,0.101 -0.047,0.199 -0.084,0.294l-2.837,9.126c-0.068,0.237 -0.152,0.392 -0.245,0.462c-0.134,0.086 -0.291,0.127 -0.449,0.118l-1.01,-0c-0.224,-0 -0.376,-0.036 -0.471,-0.118c-0.096,-0.084 -0.177,-0.236 -0.224,-0.473l-1.824,-7.613l-1.813,7.604c-0.058,0.237 -0.129,0.39 -0.221,0.471c-0.095,0.084 -0.261,0.12 -0.471,0.12l-1.013,-0l-0,-0.002Zm15.12,0.318c-0.61,0.001 -1.219,-0.07 -1.813,-0.212c-0.588,-0.142 -1.046,-0.297 -1.353,-0.474c-0.188,-0.106 -0.316,-0.223 -0.365,-0.331c-0.045,-0.104 -0.068,-0.216 -0.069,-0.33l0,-0.601c0,-0.248 0.093,-0.367 0.27,-0.367c0.072,-0 0.144,0.012 0.212,0.035c0.071,0.024 0.177,0.071 0.295,0.12c0.398,0.176 0.835,0.318 1.293,0.413c0.471,0.093 0.929,0.142 1.4,0.142c0.743,-0 1.318,-0.131 1.718,-0.39c0.391,-0.236 0.625,-0.666 0.612,-1.123c0.008,-0.306 -0.106,-0.603 -0.318,-0.825c-0.21,-0.225 -0.61,-0.426 -1.187,-0.614l-1.707,-0.531c-0.858,-0.272 -1.495,-0.675 -1.882,-1.205c-0.379,-0.49 -0.586,-1.092 -0.588,-1.712c-0,-0.495 0.106,-0.933 0.316,-1.311c0.212,-0.376 0.495,-0.708 0.849,-0.969c0.354,-0.269 0.752,-0.47 1.223,-0.612c0.471,-0.142 0.964,-0.201 1.481,-0.201c0.261,-0 0.531,0.011 0.79,0.046c0.269,0.036 0.517,0.084 0.765,0.133c0.234,0.057 0.46,0.115 0.67,0.188c0.212,0.071 0.376,0.141 0.495,0.212c0.139,0.07 0.26,0.17 0.354,0.294c0.076,0.115 0.112,0.252 0.104,0.389l-0,0.555c-0,0.248 -0.093,0.379 -0.27,0.379c-0.157,-0.018 -0.308,-0.066 -0.447,-0.142c-0.711,-0.315 -1.482,-0.472 -2.26,-0.46c-0.67,0 -1.2,0.106 -1.565,0.332c-0.365,0.221 -0.553,0.566 -0.553,1.05c0,0.33 0.117,0.613 0.354,0.838c0.234,0.223 0.67,0.447 1.293,0.648l1.672,0.531c0.847,0.272 1.46,0.65 1.824,1.134c0.365,0.484 0.54,1.039 0.54,1.654c-0,0.509 -0.104,0.966 -0.305,1.369c-0.208,0.404 -0.501,0.758 -0.858,1.039c-0.365,0.294 -0.801,0.509 -1.307,0.661c-0.531,0.166 -1.083,0.248 -1.683,0.248Z" style="fill:#eeeef0;fill-rule:nonzero;"/><path d="M38.293,27.369c-3.87,2.868 -9.495,4.391 -14.331,4.391c-6.778,0 -12.885,-2.514 -17.498,-6.693c-0.365,-0.332 -0.035,-0.781 0.398,-0.52c4.991,2.904 11.145,4.664 17.513,4.664c4.292,-0 9.011,-0.898 13.354,-2.74c0.648,-0.294 1.2,0.425 0.564,0.898Z" style="fill:#eeeef0;"/><path d="M39.905,25.527c-0.494,-0.635 -3.271,-0.305 -4.529,-0.153c-0.376,0.049 -0.436,-0.283 -0.095,-0.53c2.211,-1.559 5.849,-1.11 6.271,-0.591c0.425,0.531 -0.117,4.18 -2.189,5.926c-0.316,0.272 -0.622,0.133 -0.48,-0.221c0.469,-1.172 1.517,-3.803 1.022,-4.429l-0,-0.002Z" style="fill:#eeeef0;"/></g></g></svg>