<?xml version="1.0" encoding="UTF-8" standalone="no"?><!DOCTYPE svg PUBLIC "-//W3C//DTD SVG 1.1//EN" "http://www.w3.org/Graphics/SVG/1.1/DTD/svg11.dtd"><svg width="100%" height="100%" viewBox="0 0 48 41" version="1.1" xmlns="http://www.w3.org/2000/svg" xmlns:xlink="http://www.w3.org/1999/xlink" xml:space="preserve" xmlns:serif="http://www.serif.com/" style="fill-rule:evenodd;clip-rule:evenodd;stroke-linejoin:round;stroke-miterlimit:2;"><rect id="aws-light" x="0.061" y="0" width="47.871" height="40" style="fill:none;"/><g><g><path d="M16.28,18.136c-0,0.435 0.044,0.789 0.128,1.05c0.093,0.259 0.212,0.542 0.376,0.849c0.052,0.081 0.08,0.176 0.082,0.272c-0,0.117 -0.071,0.237 -0.222,0.354l-0.743,0.495c-0.089,0.065 -0.195,0.101 -0.305,0.106c-0.119,0 -0.236,-0.057 -0.353,-0.163c-0.159,-0.171 -0.302,-0.357 -0.425,-0.555c-0.131,-0.227 -0.252,-0.46 -0.363,-0.697c-0.92,1.086 -2.072,1.63 -3.46,1.63c-0.989,-0 -1.778,-0.285 -2.353,-0.852c-0.577,-0.566 -0.871,-1.322 -0.871,-2.266c-0,-1.004 0.354,-1.818 1.07,-2.432c0.719,-0.615 1.672,-0.92 2.883,-0.92c0.398,-0 0.812,0.035 1.248,0.093c0.435,0.059 0.884,0.154 1.353,0.261l-0,-0.863c-0,-0.898 -0.188,-1.523 -0.553,-1.888c-0.376,-0.367 -1.013,-0.544 -1.919,-0.544c-0.412,-0 -0.834,0.048 -1.27,0.155c-0.432,0.103 -0.857,0.236 -1.271,0.4c-0.134,0.06 -0.271,0.112 -0.411,0.155c-0.061,0.02 -0.124,0.032 -0.188,0.035c-0.166,-0 -0.248,-0.119 -0.248,-0.367l0,-0.579c0,-0.188 0.022,-0.332 0.082,-0.412c0.089,-0.108 0.203,-0.194 0.332,-0.25c0.409,-0.212 0.904,-0.389 1.481,-0.53c0.575,-0.155 1.188,-0.224 1.835,-0.224c1.4,0 2.424,0.319 3.083,0.956c0.648,0.636 0.977,1.605 0.977,2.905l0,3.826l0.025,-0Zm-4.779,1.793c0.387,-0 0.787,-0.071 1.212,-0.212c0.424,-0.142 0.8,-0.403 1.117,-0.757c0.189,-0.217 0.326,-0.475 0.4,-0.754c0.071,-0.285 0.119,-0.625 0.119,-1.028l0,-0.495c-0.357,-0.087 -0.719,-0.153 -1.083,-0.199c-0.367,-0.048 -0.736,-0.072 -1.106,-0.073c-0.789,-0 -1.364,0.155 -1.753,0.473c-0.39,0.318 -0.575,0.767 -0.575,1.358c-0,0.553 0.139,0.966 0.433,1.251c0.283,0.294 0.694,0.436 1.236,0.436Zm9.449,1.276c-0.213,-0 -0.354,-0.036 -0.447,-0.12c-0.095,-0.07 -0.177,-0.234 -0.248,-0.46l-2.764,-9.125c-0.053,-0.153 -0.089,-0.312 -0.106,-0.473c0,-0.188 0.093,-0.295 0.281,-0.295l1.154,0c0.221,0 0.376,0.036 0.458,0.118c0.095,0.07 0.166,0.236 0.237,0.46l1.976,7.816l1.836,-7.816c0.057,-0.235 0.128,-0.39 0.223,-0.46c0.141,-0.087 0.306,-0.128 0.471,-0.118l0.942,0c0.221,0 0.376,0.036 0.469,0.118c0.095,0.07 0.177,0.236 0.225,0.46l1.858,7.911l2.034,-7.911c0.038,-0.172 0.12,-0.33 0.237,-0.46c0.137,-0.087 0.298,-0.128 0.46,-0.118l1.094,0c0.188,0 0.294,0.095 0.294,0.295c0,0.059 -0.013,0.119 -0.022,0.19c-0.019,0.1 -0.047,0.198 -0.084,0.294l-2.837,9.126c-0.068,0.236 -0.152,0.391 -0.245,0.462c-0.134,0.085 -0.291,0.126 -0.449,0.117l-1.011,-0c-0.223,-0 -0.376,-0.036 -0.471,-0.117c-0.095,-0.084 -0.176,-0.237 -0.223,-0.474l-1.824,-7.613l-1.813,7.605c-0.058,0.236 -0.129,0.389 -0.222,0.471c-0.095,0.084 -0.26,0.119 -0.471,0.119l-1.012,0l-0,-0.002Zm15.12,0.318c-0.61,0.001 -1.219,-0.07 -1.813,-0.212c-0.588,-0.142 -1.046,-0.296 -1.353,-0.473c-0.188,-0.106 -0.317,-0.224 -0.365,-0.332c-0.045,-0.104 -0.068,-0.216 -0.069,-0.329l0,-0.602c0,-0.248 0.093,-0.367 0.27,-0.367c0.072,0 0.144,0.012 0.212,0.035c0.071,0.025 0.177,0.071 0.294,0.12c0.398,0.177 0.836,0.318 1.294,0.413c0.471,0.093 0.929,0.142 1.4,0.142c0.743,-0 1.318,-0.131 1.718,-0.389c0.391,-0.237 0.625,-0.667 0.612,-1.124c0.008,-0.306 -0.106,-0.603 -0.318,-0.824c-0.21,-0.226 -0.61,-0.427 -1.188,-0.615l-1.707,-0.531c-0.858,-0.272 -1.494,-0.674 -1.881,-1.205c-0.379,-0.49 -0.586,-1.092 -0.589,-1.711c0,-0.496 0.107,-0.934 0.317,-1.312c0.212,-0.376 0.495,-0.707 0.849,-0.968c0.354,-0.27 0.752,-0.471 1.223,-0.613c0.471,-0.141 0.964,-0.201 1.481,-0.201c0.261,0 0.531,0.011 0.79,0.046c0.269,0.036 0.517,0.085 0.765,0.133c0.234,0.058 0.46,0.115 0.67,0.188c0.212,0.071 0.376,0.142 0.495,0.212c0.139,0.07 0.26,0.171 0.354,0.294c0.075,0.116 0.112,0.252 0.104,0.39l-0,0.555c-0,0.247 -0.093,0.378 -0.27,0.378c-0.157,-0.018 -0.308,-0.066 -0.447,-0.142c-0.711,-0.315 -1.482,-0.472 -2.26,-0.46c-0.67,0 -1.2,0.106 -1.565,0.332c-0.365,0.221 -0.553,0.566 -0.553,1.05c-0,0.33 0.117,0.613 0.354,0.838c0.234,0.224 0.67,0.447 1.293,0.648l1.672,0.531c0.847,0.272 1.459,0.65 1.824,1.134c0.365,0.485 0.54,1.04 0.54,1.654c-0,0.509 -0.104,0.967 -0.305,1.369c-0.209,0.404 -0.501,0.758 -0.858,1.039c-0.365,0.295 -0.801,0.509 -1.307,0.662c-0.531,0.165 -1.084,0.247 -1.683,0.247Z" style="fill-rule:nonzero;"/><path d="M38.292,27.259c-3.869,2.868 -9.495,4.392 -14.331,4.392c-6.777,-0 -12.884,-2.514 -17.497,-6.694c-0.365,-0.331 -0.035,-0.78 0.398,-0.519c4.991,2.903 11.145,4.663 17.513,4.663c4.292,0 9.011,-0.898 13.354,-2.74c0.647,-0.294 1.2,0.425 0.563,0.898Z"/><path d="M39.904,25.417c-0.493,-0.634 -3.27,-0.305 -4.528,-0.152c-0.376,0.048 -0.436,-0.283 -0.095,-0.531c2.211,-1.559 5.848,-1.11 6.271,-0.59c0.424,0.53 -0.117,4.179 -2.189,5.926c-0.317,0.272 -0.622,0.132 -0.48,-0.221c0.469,-1.172 1.517,-3.804 1.021,-4.43l0,-0.002Z"/></g></g></svg>